<svg xmlns="http://www.w3.org/2000/svg" xmlns:xlink="http://www.w3.org/1999/xlink" x="0px" y="0px" width="16px" height="16px" viewBox="0 0 16 16"><g transform="translate(0, 0)">  <path d="M11.882,14.794c-1.713.655-6.942,1.725-9.777-1.538C-.643,10.1.55,5.311,2.607,2.919a8.265,8.265,0,0,1,9.069-1.794,6.185,6.185,0,0,1,3.811,6.351c-.118,1.823-.679,3.788-2.511,3.93S10.848,9.839,10.73,9.013a34.841,34.841,0,0,1,.325-4.357C7.038,3.432,5.62,5.568,5.177,6.877s-.591,3.36,1.063,4.243,3.84-.256,4.49-2.107" fill="none" stroke="#7b7b7b" stroke-linecap="round" stroke-linejoin="round" data-cap="butt"></path>
</g></svg>
